<svg xmlns="http://www.w3.org/2000/svg" viewBox="0 0 20.1 20" width="1em" height="1em" class="ooa-51p4fw"><defs><style>.instagram_svg__cls-1{fill:currentColor}</style></defs><path class="instagram_svg__cls-1" d="M14.34 20H5.75A5.77 5.77 0 0 1 0 14.25v-8.5A5.77 5.77 0 0 1 5.75 0h8.59a5.77 5.77 0 0 1 5.76 5.75v8.5A5.77 5.77 0 0 1 14.34 20zm-.09-1.5a4.36 4.36 0 0 0 3-1.22 4.1 4.1 0 0 0 1.26-2.94V5.66a4.1 4.1 0 0 0-1.26-2.94 4.36 4.36 0 0 0-3-1.22h-8.4a4.34 4.34 0 0 0-3 1.22 4.07 4.07 0 0 0-1.31 2.94v8.68a4.07 4.07 0 0 0 1.27 2.94 4.34 4.34 0 0 0 3 1.22z"></path><path class="instagram_svg__cls-1" d="M15.61 9.92a5.44 5.44 0 0 1-5.53 5.36 5.44 5.44 0 0 1-5.53-5.36 5.44 5.44 0 0 1 5.53-5.36 5.44 5.44 0 0 1 5.53 5.36zm-5.56-3.5a3.56 3.56 0 0 0-3.62 3.51 3.56 3.56 0 0 0 3.62 3.51 3.57 3.57 0 0 0 3.63-3.51 3.57 3.57 0 0 0-3.63-3.51z"></path><ellipse class="instagram_svg__cls-1" cx="15.7" cy="4.48" rx="1.31" ry="1.27"></ellipse></svg>