<svg xmlns="http://www.w3.org/2000/svg" width="24" height="24" viewBox="0 0 24 24"><g fill="none" fill-rule="evenodd"><g><g><g><g><g transform="translate(-351 -3998) translate(0 2986) translate(63 620) translate(288 358) translate(0 34)"><rect width="24" height="24" fill="#022F34" rx="4"></rect><path fill="#23E5DB" fill-rule="nonzero" d="M14.414 17H11.97V7h2.444v10zm-3.323-4.998c0 2.277-1.902 4.12-4.244 4.12-2.343 0-4.247-1.846-4.247-4.12 0-2.275 1.901-4.12 4.244-4.12 2.342 0 4.247 1.842 4.247 4.12zm-2.959 0c0-.69-.574-1.249-1.285-1.249s-1.286.558-1.286 1.249c0 .69.575 1.248 1.286 1.248.71 0 1.285-.558 1.285-1.248zm12.462-2.506h-1.622l-.952.925-.953-.925h-1.622V11.1l.94.912-.94.912v1.58h1.648l.93-.902.93.903H20.6v-1.581l-.94-.912.94-.912V9.496h-.006z"></path></g></g></g></g></g></g></svg>