<svg viewBox="0 0 1024 1024" version="1.1" xmlns="http://www.w3.org/2000/svg" class=""><path d="M833.203 450.022h-114.355c40.937-47.717 65.851-109.61 65.851-177.29 0-150.361-122.331-272.732-272.699-272.732s-272.645 122.369-272.645 272.732c0 67.681 24.912 129.574 65.911 177.29h-110.089l-148.504 147.485v426.493h930.653v-426.099l-144.125-147.877zM367.812 169.97h288.37c20.831 28.995 33.13 64.407 33.13 102.763 0 97.788-79.531 177.29-177.315 177.29s-177.261-79.502-177.261-177.29c0.002-38.357 12.369-73.769 33.078-102.763zM559.777 545.436h233.144l88.962 91.267v291.886h-739.774v-291.431l92.38-91.721h229.847z"></path></svg>