<svg width="1em" height="1em" viewBox="0 0 24 24" xmlns="http://www.w3.org/2000/svg" class="ooa-51p4fw"><path d="M10.191 15.317V9.192l5.384 3.062-5.384 3.063zm11.975-8.052a2.591 2.591 0 0 0-1.822-1.833C18.739 5 12.297 5 12.297 5s-6.44 0-8.046.432a2.595 2.595 0 0 0-1.822 1.833C2 8.881 2 12.254 2 12.254s0 3.374.429 4.991a2.596 2.596 0 0 0 1.822 1.833c1.606.432 8.046.432 8.046.432s6.442 0 8.047-.432a2.593 2.593 0 0 0 1.822-1.833c.43-1.617.43-4.991.43-4.991s0-3.373-.43-4.989z" fill="currentColor" fill-rule="evenodd"></path></svg>