<?xml version="1.0" encoding="UTF-8"?>
<svg width="246px" height="20px" viewBox="0 0 246 20" version="1.1" xmlns="http://www.w3.org/2000/svg" xmlns:xlink="http://www.w3.org/1999/xlink">
    <title>321sprze_logo_horizon</title>
    <g id="🚀-Master" stroke="none" stroke-width="1" fill="none" fill-rule="evenodd">
        <g id="HP_KLIKads_mWeb@360px" transform="translate(-55.000000, -6460.000000)" fill-rule="nonzero">
            <g id="oto-hp-m-footer" transform="translate(0.000000, 5080.000000)">
                <g id="Footer" transform="translate(16.000000, 32.000000)">
                    <g id="321sprze_logo_horizon" transform="translate(39.000000, 1348.000000)">
                        <path d="M98.2179745,12.8066914 C95.7714132,11.991171 94.0149076,11.7193309 93.8685321,11.322026 C93.596692,10.5901487 95.2486437,10.6947026 96.3778258,10.6947026 C96.461469,10.6947026 103.111097,10.6947026 103.111097,10.6947026 L103.905707,7.70446097 C103.905707,7.70446097 98.8034764,7.70446097 96.7960414,7.70446097 C93.596692,7.70446097 89.1636065,7.22351301 88.7453909,11.2174721 C88.5781046,12.8903346 89.9373054,14.0822491 92.9066362,14.8768587 C94.4122124,15.2741636 97.1515247,16.0060409 97.0887924,16.4869888 C97.0469708,16.8006506 96.5032905,16.9052045 94.7886065,16.9052045 C92.9066362,16.9052045 87.1561716,16.9052045 87.1561716,16.9052045 L86.3406511,19.9790892 C86.3406511,19.9790892 92.3629559,20 94.5585879,19.9581784 C97.8206697,19.9163569 101.730986,20.1672862 102.023737,16.3615242 C102.191023,14.3959108 100.957287,13.7267658 98.2179745,12.8066914 Z" id="Path" fill="#232E69"/>
                        <path d="M115.78303,7.70446097 L106.017696,7.70446097 L102.755614,19.9790892 L107.063235,19.9790892 L108.108774,16.0269517 L113.838328,16.0269517 C117.037677,16.0269517 119.672435,14.6259294 120.153383,11.5729554 C120.59251,8.81273234 118.605986,7.70446097 115.78303,7.70446097 Z M114.988421,12.6184944 C114.71658,12.9321561 114.235633,13.2458178 113.399201,13.2458178 L108.840651,13.2458178 L109.509796,10.7365242 L114.068346,10.7365242 C115.364815,10.7365242 115.78303,11.6984201 114.988421,12.6184944 Z" id="Shape" fill="#232E69"/>
                        <polygon id="Path" fill="#232E69" points="218.559517 7.70446097 216.552082 15.232342 212.014443 7.70446097 207.163142 7.70446097 203.90106 19.9790892 208.020484 19.9790892 210.06974 12.3048327 214.670112 19.9790892 219.375038 19.9790892 222.65803 7.70446097"/>
                        <polygon id="Path" fill="#232E69" points="237.713792 19.9790892 242.125967 19.9790892 243.046041 16.570632 238.612956 16.570632"/>
                        <polygon id="Path" fill="#232E69" points="240.223086 9.73280669 239.470298 15.3578067 243.046041 15.3578067 245.095298 9.73280669 245.618067 7.70446097 240.745856 7.70446097"/>
                        <polygon id="Path" fill="#232E69" points="236.124573 15.1068773 236.85645 12.3884758 228.094833 12.3884758 228.53396 10.652881 237.692882 10.652881 238.487491 7.70446097 225.000038 7.70446097 221.737956 19.9790892 235.413606 19.9790892 236.187305 17.0515799 226.819276 17.0515799 227.362956 15.1068773"/>
                        <path d="M180.209146,7.70446097 L172.116673,7.70446097 L168.854592,19.9790892 L177.218904,19.9790892 C180.439164,19.9790892 182.634796,19.1635688 184.119462,17.8252788 C185.604127,16.4869888 186.398737,14.6259294 186.524201,12.3048327 C186.712398,9.04275093 184.433123,7.70446097 180.209146,7.70446097 Z M181.714722,12.9530669 C181.651989,13.9776952 181.275595,14.8768587 180.564629,15.5878253 C179.832751,16.3615242 178.682659,16.8633829 177.030707,16.8633829 L173.998644,16.8633829 L175.608774,10.8201673 L178.640837,10.8201673 C180.711004,10.8201673 181.798365,11.4265799 181.714722,12.9530669 Z" id="Shape" fill="#232E69"/>
                        <polygon id="Path" fill="#232E69" points="153.443346 10.652881 154.300688 7.70446097 140.332287 7.70446097 139.495856 10.8410781 146.751896 10.8410781 137.425688 16.9888476 136.610168 19.9790892 151.017696 19.9790892 151.833216 16.8842937 143.970763 16.8842937"/>
                        <polygon id="Path" fill="#232E69" points="167.495391 15.1068773 168.227268 12.3884758 159.44474 12.3884758 159.904778 10.652881 169.063699 10.652881 169.858309 7.70446097 156.370856 7.70446097 153.108774 19.9790892 166.784424 19.9790892 167.558123 17.0515799 158.190093 17.0515799 158.712863 15.1068773"/>
                        <path d="M137.446599,10.8619888 C137.530242,8.83364312 136.233774,7.72537175 133.013514,7.72537175 L122.934517,7.72537175 L119.672435,20 L123.980056,20 L125.025595,16.0478625 L129.207751,16.0478625 L130.734238,20 L135.460075,20 L133.45264,15.2114312 C135.982844,14.8141264 137.362956,13.1412639 137.446599,10.8619888 Z M130.546041,13.2249071 L125.757473,13.2249071 L126.405707,10.8619888 L131.29883,10.8619888 C132.072528,10.8619888 132.511655,11.2802045 132.532566,11.7820632 C132.532566,12.2630112 132.11435,13.2249071 130.546041,13.2249071 Z" id="Shape" fill="#232E69"/>
                        <path d="M193.926618,7.70446097 L184.516766,19.9790892 L189.409889,19.9790892 L190.810911,18.0552974 L197.648737,18.0552974 L198.066952,19.9790892 L202.604592,19.9790892 L199.61435,7.70446097 L193.926618,7.70446097 L193.926618,7.70446097 Z M192.901989,15.2114312 L195.975874,11.0083643 L196.080428,11.0083643 L197.000502,15.2114312 L192.901989,15.2114312 Z" id="Shape" fill="#232E69"/>
                        <path d="M55.3508742,20 L56.6264318,15.3368959 L41.6543128,15.3368959 C41.7797775,13.5803903 57.8601678,13.1412639 58.6756883,7.68355019 L49.0149076,7.68355019 C39.4168593,9.83736059 34.481915,11.3429368 32.20264,19.9790892 L55.3508742,19.9790892 L55.3508742,20 Z" id="Path" fill="#232E69"/>
                        <path d="M17.9833091,0.0092936803 C15.5785693,-0.0116171004 5.35319758,0.0092936803 5.35319758,0.0092936803 L4.11946152,4.60966543 L26.4312645,4.60966543 C26.5358184,1.55669145 23.90106,0.0720260223 17.9833091,0.0092936803 Z" id="Path" fill="#FA0000"/>
                        <path d="M11.1036623,20 C15.9758742,19.9790892 18.6315433,19.7908922 21.1199262,17.9507435 C23.1691827,16.4451673 24.3401864,14.0195167 24.1729002,11.6984201 C23.9219708,8.45724907 21.2453909,7.68355019 18.5479002,7.68355019 L9.55626449,7.68355019 L8.30161765,12.2839219 C8.30161765,12.2839219 13.132008,12.2839219 14.0729931,12.2839219 C15.1185321,12.2839219 16.373179,12.472119 15.6831232,13.8313197 C14.7839597,15.5669145 12.6301492,15.3578067 9.80719386,15.3578067 C7.54882955,15.3578067 1.25468457,15.3578067 1.25468457,15.3578067 L0,20 C-0.020873055,20 8.65710092,20 11.1036623,20 Z" id="Path" fill="#FA0000"/>
                        <polygon id="Path" fill="#FA0000" points="68.7755953 0.0092936803 67.5000377 4.60966543 80.9874913 4.60966543 82.2212273 0.0092936803"/>
                        <polygon id="Path" fill="#FA0000" points="69.5911158 20 76.8471567 20 80.15106 7.68355019 72.8950191 7.68355019"/>
                        <g id="Group" transform="translate(26.786635, 7.683438)">
                            <path d="M0.10466621,2.30029818 C-0.334460184,3.95224985 0.648346508,5.64602309 2.30029818,6.08514948 L3.91042829,0.10466621 C2.23756584,-0.334460184 0.543792604,0.648346508 0.10466621,2.30029818 Z" id="Path" fill="#FA0000"/>
                            <path d="M6.0642387,3.88951751 C6.50336509,2.23756584 5.5205584,0.543792604 3.86860673,0.10466621 L2.25847662,6.08514948 C3.93133907,6.52427588 5.62511231,5.54146918 6.0642387,3.88951751 Z" id="Path" fill="#232E69"/>
                        </g>
                        <g id="Group" transform="translate(60.975762, 7.683438)">
                            <path d="M0.10466621,2.30029818 C-0.334460184,3.95224985 0.648346508,5.64602309 2.30029818,6.08514948 L3.91042829,0.10466621 C2.23756584,-0.334460184 0.543792604,0.648346508 0.10466621,2.30029818 Z" id="Path" fill="#232E69"/>
                            <path d="M6.0642387,3.88951751 C6.50336509,2.23756584 5.5205584,0.543792604 3.86860673,0.10466621 L2.25847662,6.08514948 C3.93133907,6.52427588 5.62511231,5.54146918 6.0642387,3.88951751 Z" id="Path" fill="#FA0000"/>
                        </g>
                        <path d="M49.9977143,0.0092936803 L37.5557998,0.0092936803 L36.3220637,4.60966543 L59.4493872,4.60966543 C59.6166734,1.2848513 56.4591455,0.0092936803 49.9977143,0.0092936803 Z" id="Path" fill="#232E69"/>
                    </g>
                </g>
            </g>
        </g>
    </g>
</svg>